<svg width="209" height="32" viewBox="0 0 209 32" fill="none" xmlns="http://www.w3.org/2000/svg">
<g clip-path="url(#clip0_142_36)">
<path d="M98.6013 3.40187H88.4245V0H112.585V3.40187H102.408V31.3645H98.6013V3.40187Z" fill="white"/>
<path d="M114.093 9.45782H117.56V12.1494H118.201C118.955 10.2055 120.538 9.38306 123.214 9.38306H125.852V12.598H122.988C119.784 12.598 117.636 14.355 117.636 18.0186V31.3644H114.055V9.45782H114.093Z" fill="white"/>
<path d="M128.905 25.1589C128.905 20.7103 132.486 18.5421 137.235 18.5421H144.698V16.9346C144.698 13.8318 142.889 11.9253 139.233 11.9253C135.577 11.9253 133.73 13.7944 133.051 16.6356L129.697 15.5515C130.752 11.8879 133.73 8.85986 139.271 8.85986C144.811 8.85986 148.241 11.9253 148.241 17.1589V27.0655C148.241 27.9627 148.693 28.4113 149.523 28.4113H151.558V31.4019H148.43C146.432 31.4019 145.113 30.243 145.113 28.3365V28.1122H144.585C143.643 29.8692 141.796 32.0001 137.197 32.0001C132.599 32.0001 128.943 29.5328 128.943 25.1589H128.905ZM144.698 21.8692V21.3832H137.386C134.559 21.3832 132.524 22.5795 132.524 25.0468C132.524 27.5141 134.559 28.9346 137.65 28.9346C141.909 28.9346 144.736 26.3178 144.736 21.8318L144.698 21.8692Z" fill="white"/>
<path d="M152.877 9.45801H156.684L163.318 28.7477H163.959L170.592 9.45801H174.399L166.484 31.3646H160.792L152.877 9.45801Z" fill="white"/>
<path d="M177.565 20.7103V20.187C177.565 13.4206 182.088 8.85986 188.533 8.85986C194.979 8.85986 199.162 13.0842 199.162 19.7384V21.3458H181.184C181.334 26.0561 184.5 28.8599 188.873 28.8599C192.68 28.8599 194.526 26.8786 195.619 24.4486L198.71 25.944C197.353 28.7103 194.715 32.0001 188.797 32.0001C182.05 32.0001 177.603 27.4767 177.603 20.7103H177.565ZM195.544 18.43C195.28 14.3552 192.529 11.9627 188.533 11.9627C184.538 11.9627 181.749 14.3552 181.221 18.43H195.544Z" fill="white"/>
<path d="M205.419 0H209V31.4019H205.419V0Z" fill="white"/>
<path d="M0 0H3.91993L12.5513 29.1215H13.1544L21.7858 0H25.7057L16.1697 31.4019H9.53598L0 0Z" fill="white"/>
<path d="M71.1994 0H64.528L54.7659 31.3645H58.6858L61.1358 23.4393L62.1158 20.0374L67.5434 2.28037H68.1841L73.6117 20.0374L74.5917 23.4393L77.0416 31.3645H80.9616L71.1994 0Z" fill="white"/>
<path d="M25.7057 0H64.5281L54.7659 31.4019H16.1697L25.7057 0Z" fill="#E6CE4D"/>
</g>
<defs>
<clipPath id="clip0_142_36">
<rect width="209" height="32" fill="white"/>
</clipPath>
</defs>
</svg>
