<svg width="157" height="24" viewBox="0 0 157 24" fill="none" xmlns="http://www.w3.org/2000/svg">
<g clip-path="url(#clip0_16_598)">
<path d="M73.7797 2.5514H66.1649V0H84.2432V2.5514H76.6283V23.5234H73.7797V2.5514Z" fill="black"/>
<path d="M85.3713 7.09346H87.966V9.11215H88.4454C89.0095 7.65421 90.194 7.03738 92.1965 7.03738H94.1707V9.4486H92.0273C89.63 9.4486 88.0224 10.7664 88.0224 13.514V23.5234H85.3431V7.09346H85.3713Z" fill="black"/>
<path d="M96.4552 18.8692C96.4552 15.5327 99.1345 13.9065 102.688 13.9065H108.272V12.7009C108.272 10.3738 106.919 8.94393 104.183 8.94393C101.447 8.94393 100.065 10.3458 99.5575 12.4766L97.0474 11.6636C97.8371 8.91589 100.065 6.64487 104.211 6.64487C108.357 6.64487 110.923 8.94393 110.923 12.8692V20.2991C110.923 20.972 111.262 21.3084 111.882 21.3084H113.405V23.5514H111.064C109.57 23.5514 108.583 22.6822 108.583 21.2523V21.0841H108.188C107.483 22.4019 106.101 24 102.66 24C99.2191 24 96.4834 22.1495 96.4834 18.8692H96.4552ZM108.272 16.4019V16.0374H102.801C100.686 16.0374 99.1627 16.9346 99.1627 18.7851C99.1627 20.6355 100.686 21.7009 102.998 21.7009C106.185 21.7009 108.301 19.7383 108.301 16.3738L108.272 16.4019Z" fill="black"/>
<path d="M114.392 7.09344H117.241L122.205 21.5607H122.684L127.648 7.09344H130.497L124.574 23.5234H120.315L114.392 7.09344Z" fill="black"/>
<path d="M132.866 15.5327V15.1402C132.866 10.0654 136.25 6.64487 141.073 6.64487C145.895 6.64487 149.026 9.81309 149.026 14.8037V16.0094H135.573C135.686 19.5421 138.055 21.6449 141.327 21.6449C144.175 21.6449 145.557 20.1589 146.375 18.3365L148.688 19.458C147.672 21.5327 145.698 24 141.27 24C136.222 24 132.894 20.6075 132.894 15.5327H132.866ZM146.319 13.8224C146.121 10.7664 144.062 8.97197 141.073 8.97197C138.083 8.97197 135.996 10.7664 135.601 13.8224H146.319Z" fill="black"/>
<path d="M153.708 0H156.387V23.5514H153.708V0Z" fill="black"/>
<path d="M0 0H2.93314L9.39169 21.8411H9.84294L16.3015 0H19.2346L12.0992 23.5514H7.13543L0 0Z" fill="black"/>
<path d="M53.276 0H48.284L40.9793 23.5234H43.9125L45.7457 17.5794L46.479 15.028L50.5402 1.71028H51.0197L55.081 15.028L55.8143 17.5794L57.6475 23.5234H60.5806L53.276 0Z" fill="black"/>
<path d="M19.2346 0H48.284L40.9793 23.5514H12.0992L19.2346 0Z" fill="#E6CE4D"/>
</g>
<defs>
<clipPath id="clip0_16_598">
<rect width="156.387" height="24" fill="white"/>
</clipPath>
</defs>
</svg>
